<svg width="22" height="19" viewBox="0 0 22 19" fill="none" xmlns="http://www.w3.org/2000/svg">
<path d="M21 4.08292V2.41631C21 2.19531 20.9122 1.98335 20.7559 1.82708C20.5997 1.6708 20.3877 1.58301 20.1667 1.58301H14.6148C14.4346 1.58375 14.2594 1.64215 14.1148 1.74967L11.0004 4.08292" stroke="#686868" stroke-width="1.44501" stroke-linecap="round" stroke-linejoin="round"/>
<path d="M15.1669 17.4176H20.2292C20.3304 17.4176 20.4307 17.3976 20.5242 17.3589C20.6177 17.3202 20.7027 17.2634 20.7742 17.1918C20.8458 17.1202 20.9026 17.0353 20.9413 16.9418C20.9801 16.8482 21 16.748 21 16.6468V15.751" stroke="#686868" stroke-width="1.44501" stroke-linecap="round" stroke-linejoin="round"/>
<path d="M7.66727 17.416H11.0005" stroke="#686868" stroke-width="1.44501" stroke-linecap="round" stroke-linejoin="round"/>
<path d="M1.00058 11.583V16.6766C1.00058 16.8727 1.0785 17.0608 1.21719 17.1995C1.35588 17.3382 1.54399 17.4161 1.74014 17.4161H3.50049" stroke="#686868" stroke-width="1.44501" stroke-linecap="round" stroke-linejoin="round"/>
<path d="M6.83301 4.08301H1.83319C1.61218 4.08301 1.40023 4.1708 1.24395 4.32708C1.08768 4.48335 0.999884 4.69531 0.999884 4.91631V7.41622" stroke="#686868" stroke-width="1.44501" stroke-linecap="round" stroke-linejoin="round"/>
<path d="M21 8.24902V11.5822" stroke="#686868" stroke-width="1.44501" stroke-linecap="round" stroke-linejoin="round"/>
<path d="M11.4439 12.8329L13.3283 14.0324C13.5714 14.1861 13.8705 13.9574 13.7994 13.6763L13.2536 11.5247C13.2388 11.4651 13.2411 11.4025 13.2603 11.3441C13.2795 11.2858 13.3148 11.234 13.362 11.1949L15.052 9.78174C15.2726 9.59807 15.1604 9.22698 14.8725 9.20824L12.6666 9.0658C12.6064 9.06229 12.5485 9.04128 12.5 9.00533C12.4515 8.96939 12.4146 8.92006 12.3936 8.86339L11.571 6.7868C11.5493 6.72678 11.5096 6.67495 11.4574 6.63831C11.4053 6.60168 11.3431 6.58203 11.2794 6.58203C11.2157 6.58203 11.1536 6.60168 11.1014 6.63831C11.0492 6.67495 11.0095 6.72678 10.9878 6.7868L10.1652 8.86339C10.1442 8.92006 10.1073 8.96939 10.0588 9.00533C10.0103 9.04128 9.95245 9.06229 9.89226 9.0658L7.68629 9.20824C7.39839 9.22698 7.28623 9.59807 7.50682 9.78174L9.19682 11.1949C9.24406 11.234 9.2793 11.2858 9.29848 11.3441C9.31766 11.4025 9.32001 11.4651 9.30525 11.5247L8.80049 13.5189C8.7145 13.8562 9.07344 14.1298 9.36133 13.9462L11.1149 12.8329C11.1641 12.8016 11.2211 12.7849 11.2794 12.7849C11.3377 12.7849 11.3947 12.8016 11.4439 12.8329V12.8329Z" stroke="#686868" stroke-width="1.44501" stroke-linecap="round" stroke-linejoin="round"/>
</svg>
