<svg width="41" height="41" viewBox="0 0 41 41" fill="none" xmlns="http://www.w3.org/2000/svg">
<g filter="url(#filter0_d_483_3272)">
<path d="M19.0063 24.3867C22.3201 24.3867 25.0063 21.7004 25.0063 18.3867C25.0063 15.073 22.3201 12.3867 19.0063 12.3867C15.6926 12.3867 13.0063 15.073 13.0063 18.3867C13.0063 21.7004 15.6926 24.3867 19.0063 24.3867Z" stroke="#686868" stroke-width="2" stroke-linecap="round" stroke-linejoin="round" shape-rendering="crispEdges"/>
<path d="M27.6814 12.475C27.9823 12.9058 28.2458 13.3617 28.4689 13.8375L31.7064 15.6375C32.1106 17.4481 32.1149 19.3251 31.7189 21.1375L28.4689 22.9375C28.2458 23.4133 27.9823 23.8692 27.6814 24.3L27.7439 28.0125C26.3718 29.2628 24.7479 30.2048 22.9814 30.775L19.7939 28.8625C19.2696 28.9 18.7432 28.9 18.2189 28.8625L15.0439 30.7625C13.2718 30.2026 11.6425 29.2643 10.2689 28.0125L10.3314 24.3125C10.033 23.8757 9.76965 23.4159 9.54388 22.9375L6.30638 21.1375C5.90213 19.3269 5.89787 17.4499 6.29388 15.6375L9.54388 13.8375C9.76699 13.3617 10.0305 12.9058 10.3314 12.475L10.2689 8.7625C11.6409 7.51221 13.2649 6.57025 15.0314 6L18.2189 7.9125C18.7432 7.87499 19.2696 7.87499 19.7939 7.9125L22.9689 6.0125C24.741 6.57237 26.3703 7.51069 27.7439 8.7625L27.6814 12.475Z" stroke="#686868" stroke-width="2" stroke-linecap="round" stroke-linejoin="round" shape-rendering="crispEdges"/>
</g>
<defs>
<filter id="filter0_d_483_3272" x="0" y="2" width="40.0127" height="38.7754" filterUnits="userSpaceOnUse" color-interpolation-filters="sRGB">
<feFlood flood-opacity="0" result="BackgroundImageFix"/>
<feColorMatrix in="SourceAlpha" type="matrix" values="0 0 0 0 0 0 0 0 0 0 0 0 0 0 0 0 0 0 127 0" result="hardAlpha"/>
<feOffset dx="1" dy="3"/>
<feGaussianBlur stdDeviation="3"/>
<feComposite in2="hardAlpha" operator="out"/>
<feColorMatrix type="matrix" values="0 0 0 0 0 0 0 0 0 0 0 0 0 0 0 0 0 0 0.1 0"/>
<feBlend mode="normal" in2="BackgroundImageFix" result="effect1_dropShadow_483_3272"/>
<feBlend mode="normal" in="SourceGraphic" in2="effect1_dropShadow_483_3272" result="shape"/>
</filter>
</defs>
</svg>
